<svg width="3791" height="642" viewBox="0 0 3791 642" fill="none" xmlns="http://www.w3.org/2000/svg">
<g clip-path="url(#clip0_273_29)">
<rect width="3791" height="642" fill="white"/>
<rect width="3791" height="642" fill="black"/>
<g clip-path="url(#clip1_273_29)">
<mask id="mask0_273_29" style="mask-type:luminance" maskUnits="userSpaceOnUse" x="1151" y="225" width="1490" height="192">
<path d="M2641 225H1151V417H2641V225Z" fill="white"/>
</mask>
<g mask="url(#mask0_273_29)">
<path d="M1212.73 279.514C1212.73 260.636 1212.73 251.197 1216.34 243.961C1219.66 237.319 1225.05 231.934 1231.69 228.616C1238.93 225 1248.37 225 1267.26 225H1288.52C1307.4 225 1316.84 225 1324.08 228.616C1330.72 231.934 1336.11 237.319 1339.43 243.961C1343.04 251.197 1343.04 260.636 1343.04 279.514V300.771C1343.04 319.65 1343.04 329.089 1339.43 336.325C1336.11 342.967 1330.72 348.351 1324.08 351.67C1316.84 355.286 1307.4 355.286 1288.52 355.286H1267.26C1248.37 355.286 1238.93 355.286 1231.69 351.67C1225.05 348.351 1219.66 342.967 1216.34 336.325C1212.73 329.089 1212.73 319.65 1212.73 300.771V279.514Z" fill="#FF3D00"/>
<path d="M1151 341.229C1151 322.35 1151 312.911 1154.62 305.675C1157.94 299.033 1163.32 293.649 1169.97 290.33C1177.2 286.714 1186.64 286.714 1205.53 286.714H1226.79C1245.67 286.714 1255.11 286.714 1262.35 290.33C1268.99 293.649 1274.38 299.033 1277.7 305.675C1281.32 312.911 1281.32 322.35 1281.32 341.229V362.486C1281.32 381.364 1281.32 390.803 1277.7 398.039C1274.38 404.681 1268.99 410.065 1262.35 413.384C1255.11 417 1245.67 417 1226.79 417H1205.53C1186.64 417 1177.2 417 1169.97 413.384C1163.32 410.065 1157.94 404.681 1154.62 398.039C1151 390.803 1151 381.364 1151 362.486V341.229Z" fill="#00D1FF"/>
<path d="M1212.73 286.714H1247.02C1265.96 286.714 1281.32 302.065 1281.32 321V355.286H1247.02C1228.08 355.286 1212.73 339.935 1212.73 321V286.714Z" fill="white"/>
<path d="M1548.86 368.007L1455.09 231.621H1449L1448.74 280.614L1542.51 417H1581.71V231.621H1548.6L1548.86 368.007Z" fill="#00D1FF"/>
<path d="M1449 231.621H1415.89L1448.73 280.614L1449 231.621Z" fill="white"/>
<path d="M1415.89 417H1449L1448.73 280.614L1415.89 231.621V417Z" fill="#FF3D00"/>
<path d="M1707.8 330.137H1637.6C1636.58 334.952 1636.05 339.919 1636.05 344.968C1636.05 348.963 1636.5 352.853 1637.07 356.62H1707.8C1709.59 346.431 1709.36 340.559 1707.8 330.137Z" fill="#00D1FF"/>
<path d="M1742.76 356.619V346.556C1742.76 340.85 1742.24 335.362 1741.24 330.137L1707.8 330.137C1709.36 340.559 1709.59 346.431 1707.8 356.62L1742.76 356.619Z" fill="white"/>
<path d="M1603.13 330.137C1602.11 334.952 1601.58 339.918 1601.58 344.967C1601.58 348.962 1601.87 352.852 1602.44 356.619L1637.07 356.62C1636.5 352.853 1636.05 348.963 1636.05 344.968C1636.05 339.919 1636.58 334.952 1637.6 330.137L1603.13 330.137Z" fill="white"/>
<path d="M1675.48 387.339C1656.41 387.339 1641.57 374.363 1637.07 356.62L1602.44 356.619C1607.84 392.3 1637.89 417 1675.75 417C1701.17 417 1721.84 406.142 1735.61 387.339L1711.51 369.331C1701.44 382.308 1690.05 387.339 1675.48 387.339Z" fill="#FF3D00"/>
<path d="M1637.6 330.137C1642.37 313.453 1655.61 303.124 1671.77 303.124C1688.46 303.124 1702.76 313.188 1707.8 330.137L1741.24 330.137C1734.75 296.313 1708.13 273.464 1672.57 273.464C1637.4 273.464 1609.82 298.581 1603.13 330.137L1637.6 330.137Z" fill="#FF3D00"/>
<path d="M1854.28 417H1888.72V363.901C1888.72 384.369 1873.96 401.872 1854.28 410.757V417Z" fill="#FF3D00"/>
<path d="M1888.72 276.773V363.901C1888.72 384.369 1873.96 401.872 1854.28 410.757L1854.02 357.016V276.773H1888.72Z" fill="white"/>
<path d="M1762.63 276.773V363.901C1762.63 393.562 1793.62 417 1825.67 417C1835.61 417 1845.44 414.748 1854.28 410.757L1854.02 357.016C1854.02 373.965 1842.62 386.412 1825.67 386.412C1808.72 386.412 1797.33 373.965 1797.33 357.016V276.773H1762.63Z" fill="#00D1FF"/>
<path d="M1978.12 311.497C1961.16 311.497 1943.28 319.808 1943.28 336.757L1943.02 283.016C1951.86 279.025 1968.18 276.773 1978.12 276.773V311.497Z" fill="#00D1FF"/>
<path d="M1943.02 276.773H1908.58V329.872C1908.58 309.405 1923.34 291.901 1943.02 283.016V276.773Z" fill="#FF3D00"/>
<path d="M1908.58 417V329.872C1908.58 309.405 1923.34 291.901 1943.02 283.016L1943.28 336.757V417H1908.58Z" fill="white"/>
<path d="M2084.07 356.884V365.623C2084.07 382.784 2086.9 393.96 2088.31 397.403C2098.11 385.838 2117.71 356.46 2117.71 331.461H2084.07V356.884Z" fill="white"/>
<path d="M2084.07 331.461V326.164C2084.07 312.658 2075.06 304.448 2058.91 304.448C2046.46 304.448 2034.8 308.421 2022.62 316.63L2008.05 292.001C2023.94 280.349 2042.22 273.728 2063.14 273.728C2095.99 273.728 2117.71 292.796 2117.71 321.927V331.461V375.687C2117.71 380.719 2120.36 383.632 2125.39 383.632H2132.55V413.557H2116.39C2103.14 413.557 2093.08 407.466 2088.31 397.403C2098.11 385.838 2117.71 356.46 2117.71 331.461H2084.07Z" fill="#00D1FF"/>
<path d="M2043.81 334.374C2014.67 336.492 1997.98 350.528 1997.98 375.157C1997.98 399.257 2018.11 417 2045.4 417C2063.67 417 2078.77 409.585 2088.31 397.403C2086.9 393.96 2084.07 382.784 2084.07 365.623C2084.07 379.394 2070.3 390.517 2053.08 390.517C2040.1 390.517 2031.09 384.426 2031.09 374.892C2031.09 365.888 2036.92 361.121 2048.58 360.062L2084.07 356.884V331.461L2043.81 334.374Z" fill="#FF3D00"/>
<path d="M2308.96 385.75V417H2192.15V231.621H2227.91V385.75H2308.96Z" fill="white"/>
<path d="M2328.83 375.157C2328.83 350.528 2345.52 336.492 2374.65 334.374L2414.92 331.461V326.164C2414.92 312.658 2405.91 304.448 2389.75 304.448C2377.3 304.448 2365.65 308.421 2353.46 316.63L2338.89 292.001C2354.79 280.349 2373.07 273.728 2393.99 273.728C2426.84 273.728 2448.56 292.796 2448.56 321.927V375.687C2448.56 380.719 2451.21 383.632 2456.24 383.632H2463.39V413.557H2447.23C2433.99 413.557 2423.92 407.466 2419.16 397.403C2409.62 409.585 2394.52 417 2376.24 417C2348.96 417 2328.83 399.257 2328.83 375.157ZM2361.94 374.892C2361.94 384.426 2370.95 390.517 2383.93 390.517C2401.14 390.517 2414.92 379.394 2414.92 365.623V356.884L2379.42 360.062C2367.77 361.121 2361.94 365.888 2361.94 374.892Z" fill="white"/>
<path d="M2483.26 413.292V227.913H2517.96V289.088C2530.14 279.025 2545.24 272.934 2561.93 272.934C2602.72 272.934 2635.04 305.243 2635.04 344.967C2635.04 384.426 2602.72 417 2561.93 417C2545.24 417 2529.88 410.909 2517.69 400.581V413.292H2483.26ZM2517.43 344.967C2517.43 368.007 2535.97 386.81 2559.02 386.81C2581.8 386.81 2600.6 368.007 2600.6 344.967C2600.6 321.662 2581.8 303.389 2559.02 303.389C2535.97 303.389 2517.43 321.662 2517.43 344.967Z" fill="white"/>
</g>
</g>
</g>
<defs>
<clipPath id="clip0_273_29">
<rect width="3791" height="642" fill="white"/>
</clipPath>
<clipPath id="clip1_273_29">
<rect width="1490" height="192" fill="white" transform="translate(1151 225)"/>
</clipPath>
</defs>
</svg>
